<svg xmlns="http://www.w3.org/2000/svg" viewBox="0 0 1842 368" font-family="-apple-system, 'Segoe UI', 'Helvetica Neue', Arial, sans-serif" role="img" aria-label="Everything in this repo is the open-source fleet platform; an Elcano engagement adds custom connectors, integrations, and forward-deployed engineering.">
<g transform="translate(140 153.0)"><rect x="-37.0" y="-37.0" width="74" height="74" rx="17" fill="#3b82f6" fill-opacity="0.22" stroke="#3b82f6" stroke-opacity="0.6" stroke-width="2"/><g fill="none" stroke="#e6edf3" stroke-width="3" stroke-linecap="round" stroke-linejoin="round"><rect x="-23" y="-19" width="31" height="23" rx="6"/><path d="M -17 4 L -17 13 L -8 4"/><path d="M -17 -11 H 1"/><path d="M -17 -4 H -5"/><circle cx="13" cy="10" r="9"/><path d="M 13 5 L 13 10 L 17 12"/></g></g>
<text x="140" y="216" text-anchor="middle" font-size="15.5" font-weight="500" fill="#e6edf3">Chat + scheduler,</text><text x="140" y="236" text-anchor="middle" font-size="15.5" font-weight="500" fill="#e6edf3">one binary</text>
<g transform="translate(282 153.0)"><rect x="-37.0" y="-37.0" width="74" height="74" rx="17" fill="#10b981" fill-opacity="0.22" stroke="#10b981" stroke-opacity="0.6" stroke-width="2"/><g fill="none" stroke="#e6edf3" stroke-width="3" stroke-linecap="round" stroke-linejoin="round"><path d="M 0 -20 L 15.5 -14 V -2 C 15.5 8 8 15.5 0 19.5 C -8 15.5 -15.5 8 -15.5 -2 V -14 Z"/><path d="M -7 -7 L -1 -1.5 L -7 4"/><path d="M 3 5 H 9"/></g></g>
<text x="282" y="216" text-anchor="middle" font-size="15.5" font-weight="500" fill="#e6edf3">Sandboxed</text><text x="282" y="236" text-anchor="middle" font-size="15.5" font-weight="500" fill="#e6edf3">tool calls</text>
<g transform="translate(424 153.0)"><rect x="-37.0" y="-37.0" width="74" height="74" rx="17" fill="#8b5cf6" fill-opacity="0.22" stroke="#8b5cf6" stroke-opacity="0.6" stroke-width="2"/><g fill="none" stroke="#e6edf3" stroke-width="3" stroke-linecap="round" stroke-linejoin="round"><rect x="-10" y="-9" width="20" height="15" rx="4.5"/><path d="M -4.5 -9 V -17"/><path d="M 4.5 -9 V -17"/><path d="M 0 6 V 10 C 0 16 -11 14.5 -11 20"/></g></g>
<text x="424" y="216" text-anchor="middle" font-size="15.5" font-weight="500" fill="#e6edf3">MCP connector</text><text x="424" y="236" text-anchor="middle" font-size="15.5" font-weight="500" fill="#e6edf3">catalog</text>
<g transform="translate(566 153.0)"><rect x="-37.0" y="-37.0" width="74" height="74" rx="17" fill="#f59e0b" fill-opacity="0.22" stroke="#f59e0b" stroke-opacity="0.6" stroke-width="2"/><g fill="none" stroke="#e6edf3" stroke-width="3" stroke-linecap="round" stroke-linejoin="round"><rect x="-13" y="-13" width="26" height="26" rx="5"/><path d="M -7 -13 V -19"/><path d="M 0 -13 V -19"/><path d="M 7 -13 V -19"/><path d="M -7 13 V 19"/><path d="M 0 13 V 19"/><path d="M 7 13 V 19"/><path d="M -13 -7 H -19"/><path d="M -13 0 H -19"/><path d="M -13 7 H -19"/><path d="M 13 -7 H 19"/><path d="M 13 0 H 19"/><path d="M 13 7 H 19"/><path d="M 0 -7 C 0.9800000000000001 -1.9600000000000002 1.9600000000000002 -0.9800000000000001 7 0 C 1.9600000000000002 0.9800000000000001 0.9800000000000001 1.9600000000000002 0 7 C -0.9800000000000001 1.9600000000000002 -1.9600000000000002 0.9800000000000001 -7 0 C -1.9600000000000002 -0.9800000000000001 -0.9800000000000001 -1.9600000000000002 0 -7 Z" fill="#e6edf3" stroke="none"/></g></g>
<text x="566" y="216" text-anchor="middle" font-size="15.5" font-weight="500" fill="#e6edf3">Any model,</text><text x="566" y="236" text-anchor="middle" font-size="15.5" font-weight="500" fill="#e6edf3">per task</text>
<g transform="translate(708 153.0)"><rect x="-37.0" y="-37.0" width="74" height="74" rx="17" fill="#f43f5e" fill-opacity="0.22" stroke="#f43f5e" stroke-opacity="0.6" stroke-width="2"/><g fill="none" stroke="#e6edf3" stroke-width="3" stroke-linecap="round" stroke-linejoin="round"><path d="M -16 9 A 16 16 0 1 1 16 9"/><path d="M 0 8 L 9.5 -3.5"/><circle cx="0" cy="8" r="2.8" fill="#e6edf3" stroke="none"/></g></g>
<text x="708" y="216" text-anchor="middle" font-size="15.5" font-weight="500" fill="#e6edf3">Budgets, ceilings</text><text x="708" y="236" text-anchor="middle" font-size="15.5" font-weight="500" fill="#e6edf3">&amp; audit</text>
<g transform="translate(850 153.0)"><rect x="-37.0" y="-37.0" width="74" height="74" rx="17" fill="#06b6d4" fill-opacity="0.22" stroke="#06b6d4" stroke-opacity="0.6" stroke-width="2"/><g fill="none" stroke="#e6edf3" stroke-width="3" stroke-linecap="round" stroke-linejoin="round"><rect x="-18" y="-16" width="36" height="25" rx="4"/><path d="M 0 9 V 15"/><path d="M -9 18 H 9"/><path d="M -11 -9 L -5 -3.5 L -11 2"/><path d="M -1 3 H 8"/></g></g>
<text x="850" y="216" text-anchor="middle" font-size="15.5" font-weight="500" fill="#e6edf3">Web · TUI ·</text><text x="850" y="236" text-anchor="middle" font-size="15.5" font-weight="500" fill="#e6edf3">HTTP API</text>
<g transform="translate(992 153.0)"><rect x="-37.0" y="-37.0" width="74" height="74" rx="17" fill="#8b5cf6" fill-opacity="0.22" stroke="#8b5cf6" stroke-opacity="0.6" stroke-width="2"/><g fill="none" stroke="#e6edf3" stroke-width="3" stroke-linecap="round" stroke-linejoin="round"><rect x="-13" y="-6" width="20" height="15" rx="4.5"/><path d="M -7.5 -6 V -14"/><path d="M 1.5 -6 V -14"/><path d="M -3 9 V 13 C -3 18.5 -13 17 -13 22"/><path d="M 13 -18 C 13.84 -13.68 14.68 -12.84 19 -12 C 14.68 -11.16 13.84 -10.32 13 -6 C 12.16 -10.32 11.32 -11.16 7 -12 C 11.32 -12.84 12.16 -13.68 13 -18 Z" fill="#e6edf3" stroke="none"/></g></g>
<text x="992" y="216" text-anchor="middle" font-size="15.5" font-weight="500" fill="#e6edf3">Custom MCP</text><text x="992" y="236" text-anchor="middle" font-size="15.5" font-weight="500" fill="#e6edf3">connectors</text>
<g transform="translate(1134 153.0)"><rect x="-37.0" y="-37.0" width="74" height="74" rx="17" fill="#3b82f6" fill-opacity="0.22" stroke="#3b82f6" stroke-opacity="0.6" stroke-width="2"/><g fill="none" stroke="#e6edf3" stroke-width="3" stroke-linecap="round" stroke-linejoin="round"><ellipse cx="-5" cy="-12" rx="12" ry="5"/><path d="M -17 -12 V 8 C -17 11 -11.6 13.5 -5 13.5 C 1.6 13.5 7 11 7 8 V -12"/><path d="M -17 -2 C -17 1 -11.6 3.5 -5 3.5 C 1.6 3.5 7 1 7 -2"/><path d="M 12 1 H 20"/><path d="M 16.5 -3 L 20.5 1 L 16.5 5"/></g></g>
<text x="1134" y="216" text-anchor="middle" font-size="15.5" font-weight="500" fill="#e6edf3">Data</text><text x="1134" y="236" text-anchor="middle" font-size="15.5" font-weight="500" fill="#e6edf3">integrations</text>
<g transform="translate(1276 153.0)"><rect x="-37.0" y="-37.0" width="74" height="74" rx="17" fill="#f59e0b" fill-opacity="0.22" stroke="#f59e0b" stroke-opacity="0.6" stroke-width="2"/><g fill="none" stroke="#e6edf3" stroke-width="3" stroke-linecap="round" stroke-linejoin="round"><rect x="-17" y="-9" width="33" height="23" rx="4"/><path d="M -17 -6 L -0.5 5 L 16 -6"/><path d="M 14 -22 C 14.84 -17.68 15.68 -16.84 20 -16 C 15.68 -15.16 14.84 -14.32 14 -10 C 13.16 -14.32 12.32 -15.16 8 -16 C 12.32 -16.84 13.16 -17.68 14 -22 Z" fill="#e6edf3" stroke="none"/></g></g>
<text x="1276" y="216" text-anchor="middle" font-size="15.5" font-weight="500" fill="#e6edf3">Add-on</text><text x="1276" y="236" text-anchor="middle" font-size="15.5" font-weight="500" fill="#e6edf3">capabilities</text>
<g transform="translate(1418 153.0)"><rect x="-37.0" y="-37.0" width="74" height="74" rx="17" fill="#10b981" fill-opacity="0.22" stroke="#10b981" stroke-opacity="0.6" stroke-width="2"/><g fill="none" stroke="#e6edf3" stroke-width="3" stroke-linecap="round" stroke-linejoin="round"><circle cx="-6" cy="-9" r="7"/><path d="M -18 15 C -18 5 -14 3 -6 3 C 2 3 6 5 6 15"/><path d="M 13 17 C 13 17 5.5 9.5 5.5 5 A 7.5 7.5 0 1 1 20.5 5 C 20.5 9.5 13 17 13 17 Z"/><circle cx="13" cy="4.5" r="2.6" fill="#e6edf3" stroke="none"/></g></g>
<text x="1418" y="216" text-anchor="middle" font-size="15.5" font-weight="500" fill="#e6edf3">Forward-deployed</text><text x="1418" y="236" text-anchor="middle" font-size="15.5" font-weight="500" fill="#e6edf3">engineering</text>
<g transform="translate(1560 153.0)"><rect x="-37.0" y="-37.0" width="74" height="74" rx="17" fill="#f43f5e" fill-opacity="0.22" stroke="#f43f5e" stroke-opacity="0.6" stroke-width="2"/><g fill="none" stroke="#e6edf3" stroke-width="3" stroke-linecap="round" stroke-linejoin="round"><rect x="-16" y="-14" width="32" height="29" rx="4"/><path d="M -16 -6 H 16"/><path d="M -8 -14 V -20"/><path d="M 8 -14 V -20"/><path d="M -7.5 3.5 L -2.5 8.5 L 8 -3"/></g></g>
<text x="1560" y="216" text-anchor="middle" font-size="15.5" font-weight="500" fill="#e6edf3">Production-ready</text><text x="1560" y="236" text-anchor="middle" font-size="15.5" font-weight="500" fill="#e6edf3">workflows</text>
<g transform="translate(1702 153.0)"><rect x="-37.0" y="-37.0" width="74" height="74" rx="17" fill="#06b6d4" fill-opacity="0.22" stroke="#06b6d4" stroke-opacity="0.6" stroke-width="2"/><g fill="none" stroke="#e6edf3" stroke-width="3" stroke-linecap="round" stroke-linejoin="round"><circle cx="0" cy="0" r="17"/><circle cx="0" cy="0" r="7.5"/><path d="M 0 -17 V -7.5"/><path d="M 0 7.5 V 17"/><path d="M -17 0 H -7.5"/><path d="M 7.5 0 H 17"/></g></g>
<text x="1702" y="216" text-anchor="middle" font-size="15.5" font-weight="500" fill="#e6edf3">Support &amp;</text><text x="1702" y="236" text-anchor="middle" font-size="15.5" font-weight="500" fill="#e6edf3">operations</text>
<path d="M 84 104 C 84 92, 96 92, 108 92 L 471.0 92 C 483.0 92, 495.0 92, 495.0 80 C 495.0 92, 507.0 92, 519.0 92 L 882 92 C 894 92, 906 92, 906 104" fill="none" stroke="#767d86" stroke-width="2.5" stroke-linecap="round"/>
<text x="495.0" y="64" text-anchor="middle" font-size="23" font-weight="600" fill="#9198a1">fleet — open source (this repo)</text>
<path d="M 80 254 C 80 267, 93 267, 106 267 L 895.0 267 C 908.0 267, 921.0 267, 921.0 280 C 921.0 267, 934.0 267, 947.0 267 L 1736 267 C 1749 267, 1762 267, 1762 254" fill="none" stroke="#9198a1" stroke-width="2.5" stroke-linecap="round"/>
<text x="921.0" y="314" text-anchor="middle" font-size="25" font-weight="600" fill="#e6edf3">fleet — with an Elcano engagement</text>
</svg>
