<?xml version="1.0" encoding="UTF-8"?>
<svg id="Layer_2" data-name="Layer 2" xmlns="http://www.w3.org/2000/svg" width="1653.31" height="1653.43" viewBox="0 0 1653.31 1653.43">
  <g id="Layer_1-2" data-name="Layer 1">
    <path d="M1135.96,575.55c137.11,123.32,318.45,198.43,517.35,198.43V0h-773.97c0,205.8,80.47,392.68,211.46,531.31-153.42,120.36-371.48,118.5-522.79-5.77C695.78,387.51,773.97,202.93,773.97,0h0C346.52,0,0,346.52,0,773.97h0c202.54,0,386.85-77.9,524.81-205.27,124.1,151.08,126.16,368.7,6.36,522.09C392.54,959.86,205.7,879.45,0,879.45v773.97h773.97c0-198.92-75.1-380.24-198.4-517.33,148.38-116.26,357.09-118.23,507.48-5.84-126.45,137.76-203.71,321.41-203.71,523.17h0c427.45,0,773.97-346.52,773.97-773.97h0c-202.03,0-385.93,77.49-523.77,204.28-112.56-150.63-110.39-359.78,6.42-508.19Z" fill="#7272ab"/>
  </g>
</svg>